


<svg width="1000" height="3265" version="1.1" xmlns="http://www.w3.org/2000/svg">
    <style type="text/css" >
        <![CDATA[
            .segment { fill: none; stroke-width: 4 }
            .segment:hover { stroke-width: 8 }
        ]]>
    </style>
    <g id="legend">
        
        <rect x="0" y="0" width="30" height="20" fill="#00f"/>
        <rect x="0" y="3245" width="30" height="20" fill="#00f"/>
        
        <rect x="30" y="0" width="30" height="20" fill="#02f"/>
        <rect x="30" y="3245" width="30" height="20" fill="#02f"/>
        
        <rect x="60" y="0" width="30" height="20" fill="#04f"/>
        <rect x="60" y="3245" width="30" height="20" fill="#04f"/>
        
        <rect x="90" y="0" width="30" height="20" fill="#06f"/>
        <rect x="90" y="3245" width="30" height="20" fill="#06f"/>
        
        <rect x="120" y="0" width="30" height="20" fill="#08f"/>
        <rect x="120" y="3245" width="30" height="20" fill="#08f"/>
        
        <rect x="150" y="0" width="30" height="20" fill="#0af"/>
        <rect x="150" y="3245" width="30" height="20" fill="#0af"/>
        
        <rect x="180" y="0" width="30" height="20" fill="#0cf"/>
        <rect x="180" y="3245" width="30" height="20" fill="#0cf"/>
        
        <rect x="210" y="0" width="30" height="20" fill="#0ef"/>
        <rect x="210" y="3245" width="30" height="20" fill="#0ef"/>
        
        <rect x="240" y="0" width="30" height="20" fill="#0ff"/>
        <rect x="240" y="3245" width="30" height="20" fill="#0ff"/>
        
        <rect x="270" y="0" width="30" height="20" fill="#0fb"/>
        <rect x="270" y="3245" width="30" height="20" fill="#0fb"/>
        
        <rect x="300" y="0" width="30" height="20" fill="#0f7"/>
        <rect x="300" y="3245" width="30" height="20" fill="#0f7"/>
        
        <rect x="330" y="0" width="30" height="20" fill="#0f3"/>
        <rect x="330" y="3245" width="30" height="20" fill="#0f3"/>
        
        <rect x="360" y="0" width="30" height="20" fill="#0f0"/>
        <rect x="360" y="3245" width="30" height="20" fill="#0f0"/>
        
        <rect x="390" y="0" width="30" height="20" fill="#4f0"/>
        <rect x="390" y="3245" width="30" height="20" fill="#4f0"/>
        
        <rect x="420" y="0" width="30" height="20" fill="#8f0"/>
        <rect x="420" y="3245" width="30" height="20" fill="#8f0"/>
        
        <rect x="450" y="0" width="30" height="20" fill="#cf0"/>
        <rect x="450" y="3245" width="30" height="20" fill="#cf0"/>
        
        <rect x="480" y="0" width="30" height="20" fill="#ff0"/>
        <rect x="480" y="3245" width="30" height="20" fill="#ff0"/>
        
        <rect x="510" y="0" width="30" height="20" fill="#fd0"/>
        <rect x="510" y="3245" width="30" height="20" fill="#fd0"/>
        
        <rect x="540" y="0" width="30" height="20" fill="#fb0"/>
        <rect x="540" y="3245" width="30" height="20" fill="#fb0"/>
        
        <rect x="570" y="0" width="30" height="20" fill="#f90"/>
        <rect x="570" y="3245" width="30" height="20" fill="#f90"/>
        
        <rect x="600" y="0" width="30" height="20" fill="#f70"/>
        <rect x="600" y="3245" width="30" height="20" fill="#f70"/>
        
        <rect x="630" y="0" width="30" height="20" fill="#f50"/>
        <rect x="630" y="3245" width="30" height="20" fill="#f50"/>
        
        <rect x="660" y="0" width="30" height="20" fill="#f30"/>
        <rect x="660" y="3245" width="30" height="20" fill="#f30"/>
        
        <rect x="690" y="0" width="30" height="20" fill="#f10"/>
        <rect x="690" y="3245" width="30" height="20" fill="#f10"/>
        
        
        <text x="5" y="16" fill="white">0kts</text>
        <text x="5" y="3261" fill="white">0kts</text>
        
        <text x="155" y="16" fill="white">5kts</text>
        <text x="155" y="3261" fill="white">5kts</text>
        
        <text x="305" y="16" fill="white">10kts</text>
        <text x="305" y="3261" fill="white">10kts</text>
        
        <text x="455" y="16" fill="white">15kts</text>
        <text x="455" y="3261" fill="white">15kts</text>
        
        <text x="605" y="16" fill="white">20kts</text>
        <text x="605" y="3261" fill="white">20kts</text>
        
    </g>
    
    <g class="segment">
        
        
        <!-- 0.01678594612290841 nm; 8.632772291781468 kts -->
        <line class="step" x1="182" y1="2994" x2="204" y2="2929" stroke="#0ff"/>
	    
        
        <!-- 0.018094879210852264 nm; 8.142695644883519 kts -->
        <line class="step" x1="204" y1="2929" x2="228" y2="2859" stroke="#0ff"/>
	    
        
        <!-- 0.016056460191476492 nm; 7.225407086164422 kts -->
        <line class="step" x1="228" y1="2859" x2="247" y2="2796" stroke="#0ef"/>
	    
        
        <!-- 0.01126358657724852 nm; 5.792701668299239 kts -->
        <line class="step" x1="247" y1="2796" x2="260" y2="2752" stroke="#0af"/>
	    
        
        <!-- 0.01345882424846735 nm; 5.38352969938694 kts -->
        <line class="step" x1="260" y1="2752" x2="267" y2="2697" stroke="#0af"/>
	    
        
        <!-- 0.014651254314689293 nm; 5.860501725875717 kts -->
        <line class="step" x1="267" y1="2697" x2="275" y2="2638" stroke="#0af"/>
	    
        
        <!-- 0.015982228092532802 nm; 5.753602113311809 kts -->
        <line class="step" x1="275" y1="2638" x2="287" y2="2574" stroke="#0af"/>
	    
        
        <!-- 0.015299953844250244 nm; 5.507983383930088 kts -->
        <line class="step" x1="287" y1="2574" x2="297" y2="2512" stroke="#0af"/>
	    
        
        <!-- 0.013270214046907128 nm; 5.308085618762851 kts -->
        <line class="step" x1="297" y1="2512" x2="306" y2="2459" stroke="#0af"/>
	    
        
        <!-- 0.013932774719793458 nm; 5.573109887917383 kts -->
        <line class="step" x1="306" y1="2459" x2="317" y2="2403" stroke="#0af"/>
	    
        
        <!-- 0.015481115460599215 nm; 5.573201565815717 kts -->
        <line class="step" x1="317" y1="2403" x2="327" y2="2340" stroke="#0af"/>
	    
        
        <!-- 0.011096060293223008 nm; 4.438424117289203 kts -->
        <line class="step" x1="327" y1="2340" x2="333" y2="2295" stroke="#08f"/>
	    
        
        <!-- 0.00915838235994186 nm; 3.663352943976744 kts -->
        <line class="step" x1="333" y1="2295" x2="339" y2="2258" stroke="#06f"/>
	    
        
        <!-- 0.007821649233500205 nm; 3.128659693400082 kts -->
        <line class="step" x1="339" y1="2258" x2="343" y2="2227" stroke="#06f"/>
	    
        
        <!-- 0.00650637027017254 nm; 2.602548108069016 kts -->
        <line class="step" x1="343" y1="2227" x2="343" y2="2200" stroke="#04f"/>
	    
        
        <!-- 0.004750305112989567 nm; 2.8501830677937403 kts -->
        <line class="step" x1="343" y1="2200" x2="346" y2="2181" stroke="#04f"/>
	    
        
        <!-- 0.011224708751103131 nm; 3.367412625330939 kts -->
        <line class="step" x1="346" y1="2181" x2="344" y2="2135" stroke="#06f"/>
	    
        
        <!-- 0.007242716186546214 nm; 2.8970864746184857 kts -->
        <line class="step" x1="344" y1="2135" x2="345" y2="2105" stroke="#04f"/>
	    
        
        <!-- 0.007962966520008162 nm; 2.866667947202938 kts -->
        <line class="step" x1="345" y1="2105" x2="346" y2="2073" stroke="#04f"/>
	    
        
        <!-- 0.0052577595579949 nm; 2.703990629825949 kts -->
        <line class="step" x1="346" y1="2073" x2="346" y2="2051" stroke="#04f"/>
	    
        
        <!-- 0.006818513197869691 nm; 4.091107918721814 kts -->
        <line class="step" x1="346" y1="2051" x2="344" y2="2023" stroke="#08f"/>
	    
        
        <!-- 0.014317990949395062 nm; 5.154476741782222 kts -->
        <line class="step" x1="344" y1="2023" x2="344" y2="1965" stroke="#0af"/>
	    
        
        <!-- 0.012251916699591123 nm; 5.513362514816005 kts -->
        <line class="step" x1="344" y1="1965" x2="342" y2="1915" stroke="#0af"/>
	    
        
        <!-- 0.010536924711955317 nm; 6.32215482717319 kts -->
        <line class="step" x1="342" y1="1915" x2="339" y2="1872" stroke="#0cf"/>
	    
        
        <!-- 0.010450933597242265 nm; 6.270560158345359 kts -->
        <line class="step" x1="339" y1="1872" x2="340" y2="1829" stroke="#0cf"/>
	    
        
        <!-- 0.013040709090616494 nm; 6.706650389459911 kts -->
        <line class="step" x1="340" y1="1829" x2="342" y2="1776" stroke="#0cf"/>
	    
        
        <!-- 0.01521400868823051 nm; 6.84630390970373 kts -->
        <line class="step" x1="342" y1="1776" x2="344" y2="1714" stroke="#0cf"/>
	    
        
        <!-- 0.009531117281194598 nm; 6.86240444246011 kts -->
        <line class="step" x1="344" y1="1714" x2="344" y2="1675" stroke="#0cf"/>
	    
        
        <!-- 0.009700589106981631 nm; 6.984424157026774 kts -->
        <line class="step" x1="344" y1="1675" x2="337" y2="1636" stroke="#0cf"/>
	    
        
        <!-- 0.013824404666286108 nm; 6.220982099828749 kts -->
        <line class="step" x1="337" y1="1636" x2="327" y2="1580" stroke="#0cf"/>
	    
        
        <!-- 0.018369588675019338 nm; 6.0118653845517835 kts -->
        <line class="step" x1="327" y1="1580" x2="315" y2="1506" stroke="#0cf"/>
	    
        
        <!-- 0.01869655063030319 nm; 6.730758226909148 kts -->
        <line class="step" x1="315" y1="1506" x2="304" y2="1430" stroke="#0cf"/>
	    
        
        <!-- 0.012901380009813815 nm; 5.160552003925526 kts -->
        <line class="step" x1="304" y1="1430" x2="292" y2="1379" stroke="#0af"/>
	    
        
        <!-- 0.006418455136073045 nm; 3.851073081643827 kts -->
        <line class="step" x1="292" y1="1379" x2="288" y2="1353" stroke="#06f"/>
	    
        
        <!-- 0.011645331435500821 nm; 4.658132574200328 kts -->
        <line class="step" x1="288" y1="1353" x2="281" y2="1306" stroke="#08f"/>
	    
        
        <!-- 0.013863968455345875 nm; 4.991028643924515 kts -->
        <line class="step" x1="281" y1="1306" x2="270" y2="1250" stroke="#08f"/>
	    
        
        <!-- 0.013029871946291124 nm; 5.211948778516449 kts -->
        <line class="step" x1="270" y1="1250" x2="261" y2="1198" stroke="#0af"/>
	    
        
        <!-- 0.009306217860292676 nm; 3.7224871441170704 kts -->
        <line class="step" x1="261" y1="1198" x2="254" y2="1160" stroke="#06f"/>
	    
        
        <!-- 0.007910041996923389 nm; 3.559518898615525 kts -->
        <line class="step" x1="254" y1="1160" x2="251" y2="1128" stroke="#06f"/>
	    
        
        <!-- 0.008337466068108396 nm; 4.287839692170032 kts -->
        <line class="step" x1="251" y1="1128" x2="248" y2="1094" stroke="#08f"/>
	    
        
        <!-- 0.014833937850798723 nm; 5.93357514031949 kts -->
        <line class="step" x1="248" y1="1094" x2="238" y2="1034" stroke="#0af"/>
	    
        
        <!-- 0.001402519325797489 nm; 5.049069572870961 kts -->
        <line class="step" x1="238" y1="1034" x2="235" y2="1029" stroke="#0af"/>
	    
        
        <!-- 0.008972028356841135 nm; 4.614186012089727 kts -->
        <line class="step" x1="235" y1="1029" x2="227" y2="994" stroke="#08f"/>
	    
        
        <!-- 0.006920195425624523 nm; 4.152117255374714 kts -->
        <line class="step" x1="227" y1="994" x2="221" y2="966" stroke="#08f"/>
	    
        
        <!-- 0.006031386212012047 nm; 3.6188317272072283 kts -->
        <line class="step" x1="221" y1="966" x2="216" y2="942" stroke="#06f"/>
	    
        
        <!-- 0.009655035125844728 nm; 4.965446636148718 kts -->
        <line class="step" x1="216" y1="942" x2="214" y2="902" stroke="#08f"/>
	    
        
        <!-- 0.012241271807016072 nm; 7.344763084209642 kts -->
        <line class="step" x1="214" y1="902" x2="214" y2="852" stroke="#0ef"/>
	    
        
        <!-- 0.006268540138736277 nm; 7.522248166483532 kts -->
        <line class="step" x1="214" y1="852" x2="213" y2="827" stroke="#0ef"/>
	    
        
        <!-- 0.010533448775017799 nm; 7.584083118012815 kts -->
        <line class="step" x1="213" y1="827" x2="212" y2="784" stroke="#0ef"/>
	    
        
        <!-- 0.00790968857168323 nm; 9.491626286019876 kts -->
        <line class="step" x1="212" y1="784" x2="232" y2="758" stroke="#0fb"/>
	    
        
        <!-- 0.006253065440123945 nm; 11.2555177922231 kts -->
        <line class="step" x1="232" y1="758" x2="257" y2="751" stroke="#0f3"/>
	    
        
        <!-- 0.02515616427718471 nm; 10.062465710873884 kts -->
        <line class="step" x1="257" y1="751" x2="357" y2="727" stroke="#0f7"/>
	    
        
        <!-- 0.007583646867067562 nm; 9.100376240481074 kts -->
        <line class="step" x1="357" y1="727" x2="386" y2="717" stroke="#0fb"/>
	    
        
        <!-- 0.014177256355363899 nm; 8.50635381321834 kts -->
        <line class="step" x1="386" y1="717" x2="444" y2="713" stroke="#0ff"/>
	    
        
        <!-- 0.012642633013724957 nm; 6.5019255499156925 kts -->
        <line class="step" x1="444" y1="713" x2="495" y2="708" stroke="#0cf"/>
	    
        
        <!-- 0.008164396707051536 nm; 7.347957036346383 kts -->
        <line class="step" x1="495" y1="708" x2="528" y2="699" stroke="#0ef"/>
	    
        
        <!-- 0.01531606086100593 nm; 9.189636516603557 kts -->
        <line class="step" x1="528" y1="699" x2="586" y2="676" stroke="#0fb"/>
	    
        
        <!-- 0.023640853488240715 nm; 8.510707255766658 kts -->
        <line class="step" x1="586" y1="676" x2="682" y2="671" stroke="#0ff"/>
	    
        
        <!-- 0.011510014007305561 nm; 5.919435775185717 kts -->
        <line class="step" x1="682" y1="671" x2="729" y2="670" stroke="#0af"/>
	    
        
        <!-- 0.014629101647300038 nm; 7.52353799004002 kts -->
        <line class="step" x1="729" y1="670" x2="785" y2="648" stroke="#0ef"/>
	    
        
        <!-- 0.0054696404960730225 nm; 9.845352892931441 kts -->
        <line class="step" x1="785" y1="648" x2="802" y2="634" stroke="#0fb"/>
	    
        
        <!-- 0.012688139659531025 nm; 7.612883795718615 kts -->
        <line class="step" x1="802" y1="634" x2="807" y2="582" stroke="#0ef"/>
	    
        
        <!-- 0.00706725888952576 nm; 5.088426400458547 kts -->
        <line class="step" x1="807" y1="582" x2="801" y2="554" stroke="#0af"/>
	    
        
        <!-- 0.011914244621379862 nm; 5.361410079620938 kts -->
        <line class="step" x1="801" y1="554" x2="794" y2="506" stroke="#0af"/>
	    
        
        <!-- 0.013592338717447678 nm; 5.436935486979071 kts -->
        <line class="step" x1="794" y1="506" x2="790" y2="450" stroke="#0af"/>
	    
        
        <!-- 0.009650792713182081 nm; 4.963264823922214 kts -->
        <line class="step" x1="790" y1="450" x2="786" y2="411" stroke="#08f"/>
	    
        
        <!-- 0.008846550915474897 nm; 4.549654756529947 kts -->
        <line class="step" x1="786" y1="411" x2="781" y2="375" stroke="#08f"/>
	    
        
        <!-- 0.009270679812737364 nm; 5.562407887642418 kts -->
        <line class="step" x1="781" y1="375" x2="772" y2="338" stroke="#0af"/>
	    
        
        <!-- 0.005980705392828121 nm; 4.306107882836247 kts -->
        <line class="step" x1="772" y1="338" x2="766" y2="315" stroke="#08f"/>
	    
        
        <!-- 0.007209866658520638 nm; 3.7079314243820423 kts -->
        <line class="step" x1="766" y1="315" x2="760" y2="286" stroke="#06f"/>
	    
        
        <!-- 0.011075403292036122 nm; 6.645241975221673 kts -->
        <line class="step" x1="760" y1="286" x2="755" y2="241" stroke="#0cf"/>
	    
        
        <!-- 0.019954147976914412 nm; 7.981659190765765 kts -->
        <line class="step" x1="755" y1="241" x2="743" y2="160" stroke="#0ef"/>
	    
        
        <!-- 0.0032951861187306567 nm; 3.9542233424767876 kts -->
        <line class="step" x1="743" y1="160" x2="735" y2="149" stroke="#06f"/>
	    
        
        <!-- 0.0031851056151631775 nm; 1.6380543163696342 kts -->
        <line class="step" x1="735" y1="149" x2="723" y2="153" stroke="#02f"/>
	    
        
        <!-- 0.004300534454773976 nm; 3.096384807437263 kts -->
        <line class="step" x1="723" y1="153" x2="709" y2="163" stroke="#06f"/>
	    
        
        <!-- 0.009306730171573217 nm; 4.78631837395194 kts -->
        <line class="step" x1="709" y1="163" x2="677" y2="184" stroke="#08f"/>
	    
        
        <!-- 0.009787524520341193 nm; 5.872514712204715 kts -->
        <line class="step" x1="677" y1="184" x2="644" y2="206" stroke="#0af"/>
	    
        
        <!-- 0.011493866865495405 nm; 8.27558414315669 kts -->
        <line class="step" x1="644" y1="206" x2="617" y2="245" stroke="#0ff"/>
	    
        
        <!-- 0.008129579999733296 nm; 9.755495999679955 kts -->
        <line class="step" x1="617" y1="245" x2="620" y2="278" stroke="#0fb"/>
	    
        
        <!-- 0.019866408228357006 nm; 10.217009946012174 kts -->
        <line class="step" x1="620" y1="278" x2="636" y2="357" stroke="#0f7"/>
	    
        
        <!-- 0.005915666635264963 nm; 10.648199943476934 kts -->
        <line class="step" x1="636" y1="357" x2="637" y2="382" stroke="#0f7"/>
	    
        
        <!-- 0.020211151281566208 nm; 10.394306373376907 kts -->
        <line class="step" x1="637" y1="382" x2="626" y2="463" stroke="#0f7"/>
	    
        
        <!-- 0.022412576060384985 nm; 10.085659227173243 kts -->
        <line class="step" x1="626" y1="463" x2="612" y2="554" stroke="#0f7"/>
	    
        
        <!-- 0.01862943294558531 nm; 9.58085122915816 kts -->
        <line class="step" x1="612" y1="554" x2="601" y2="629" stroke="#0fb"/>
	    
        
        <!-- 0.026640424425710973 nm; 10.65616977028439 kts -->
        <line class="step" x1="601" y1="629" x2="581" y2="736" stroke="#0f7"/>
	    
        
        <!-- 0.021006848604220522 nm; 10.803522139313412 kts -->
        <line class="step" x1="581" y1="736" x2="569" y2="821" stroke="#0f7"/>
	    
        
        <!-- 0.012706816259023966 nm; 11.43613463312157 kts -->
        <line class="step" x1="569" y1="821" x2="573" y2="873" stroke="#0f3"/>
	    
        
        <!-- 0.025172578939841844 nm; 11.32766052292883 kts -->
        <line class="step" x1="573" y1="873" x2="566" y2="976" stroke="#0f3"/>
	    
        
        <!-- 0.022124754465834225 nm; 11.378445153857601 kts -->
        <line class="step" x1="566" y1="976" x2="548" y2="1065" stroke="#0f3"/>
	    
        
        <!-- 0.021561057678060182 nm; 9.702475955127083 kts -->
        <line class="step" x1="548" y1="1065" x2="527" y2="1150" stroke="#0fb"/>
	    
        
        <!-- 0.010839578312737842 nm; 9.755620481464057 kts -->
        <line class="step" x1="527" y1="1150" x2="517" y2="1193" stroke="#0fb"/>
	    
        
        <!-- 0.01627196296513177 nm; 11.715813334894875 kts -->
        <line class="step" x1="517" y1="1193" x2="524" y2="1259" stroke="#0f3"/>
	    
        
        <!-- 0.03187815083818242 nm; 12.751260335272967 kts -->
        <line class="step" x1="524" y1="1259" x2="541" y2="1389" stroke="#0f0"/>
	    
        
        <!-- 0.029638929267773406 nm; 13.337518170498033 kts -->
        <line class="step" x1="541" y1="1389" x2="559" y2="1508" stroke="#4f0"/>
	    
        
        <!-- 0.003697092398186233 nm; 13.30953263347044 kts -->
        <line class="step" x1="559" y1="1508" x2="563" y2="1523" stroke="#4f0"/>
	    
        
        <!-- 0.017002549237858863 nm; 12.241835451258382 kts -->
        <line class="step" x1="563" y1="1523" x2="591" y2="1587" stroke="#0f0"/>
	    
        
        <!-- 0.021947363754467618 nm; 11.287215645154776 kts -->
        <line class="step" x1="591" y1="1587" x2="621" y2="1671" stroke="#0f3"/>
	    
        
        <!-- 0.011050871202306568 nm; 9.94578408207591 kts -->
        <line class="step" x1="621" y1="1671" x2="617" y2="1716" stroke="#0fb"/>
	    
        
        <!-- 0.004459429019143515 nm; 8.026972234458327 kts -->
        <line class="step" x1="617" y1="1716" x2="606" y2="1730" stroke="#0ff"/>
	    
        
        <!-- 0.02244945571106373 nm; 8.081804055982943 kts -->
        <line class="step" x1="606" y1="1730" x2="545" y2="1799" stroke="#0ff"/>
	    
        
        <!-- 0.014797041876385893 nm; 7.609907250712745 kts -->
        <line class="step" x1="545" y1="1799" x2="502" y2="1841" stroke="#0ef"/>
	    
        
        <!-- 0.012299718462195885 nm; 8.855797292781038 kts -->
        <line class="step" x1="502" y1="1841" x2="475" y2="1884" stroke="#0ff"/>
	    
        
        <!-- 0.020013990099858214 nm; 10.292909194212797 kts -->
        <line class="step" x1="475" y1="1884" x2="459" y2="1964" stroke="#0f7"/>
	    
        
        <!-- 0.01963958695706776 nm; 10.10035900649199 kts -->
        <line class="step" x1="459" y1="1964" x2="444" y2="2043" stroke="#0f7"/>
	    
        
        <!-- 0.02116713046611476 nm; 10.885952811144735 kts -->
        <line class="step" x1="444" y1="2043" x2="420" y2="2126" stroke="#0f7"/>
	    
        
        <!-- 0.02506723681507161 nm; 11.280256566782224 kts -->
        <line class="step" x1="420" y1="2126" x2="389" y2="2224" stroke="#0f3"/>
	    
        
        <!-- 0.01971799275304515 nm; 11.83079565182709 kts -->
        <line class="step" x1="389" y1="2224" x2="367" y2="2302" stroke="#0f3"/>
	    
        
        <!-- 0.022867701491222053 nm; 11.760532195485627 kts -->
        <line class="step" x1="367" y1="2302" x2="340" y2="2391" stroke="#0f3"/>
	    
        
        <!-- 0.023720799911809434 nm; 12.199268526073423 kts -->
        <line class="step" x1="340" y1="2391" x2="318" y2="2486" stroke="#0f0"/>
	    
        
        <!-- 0.017539346034814284 nm; 10.52360762088857 kts -->
        <line class="step" x1="318" y1="2486" x2="303" y2="2556" stroke="#0f7"/>
	    
        
        <!-- 0.02139485849612669 nm; 11.0030700837223 kts -->
        <line class="step" x1="303" y1="2556" x2="280" y2="2640" stroke="#0f3"/>
	    
        
        <!-- 0.024879116861263515 nm; 12.794974385792665 kts -->
        <line class="step" x1="280" y1="2640" x2="259" y2="2740" stroke="#0f0"/>
	    
        
        <!-- 0.02446611476001234 nm; 12.582573305149204 kts -->
        <line class="step" x1="259" y1="2740" x2="249" y2="2839" stroke="#0f0"/>
	    
        
        <!-- 0.024076896360396036 nm; 10.834603362178216 kts -->
        <line class="step" x1="249" y1="2839" x2="244" y2="2937" stroke="#0f7"/>
	    
        
        <!-- 0.020620128992544944 nm; 9.279058046645224 kts -->
        <line class="step" x1="244" y1="2937" x2="226" y2="3020" stroke="#0fb"/>
	    
        
        <!-- 0.006940709678710115 nm; 8.328851614452137 kts -->
        <line class="step" x1="226" y1="3020" x2="217" y2="3047" stroke="#0ff"/>
	    
        
        <!-- 0.006959385809236871 nm; 6.263447228313185 kts -->
        <line class="step" x1="217" y1="3047" x2="201" y2="3070" stroke="#0cf"/>
	    
        
        <!-- 0.012931510501251922 nm; 5.172604200500769 kts -->
        <line class="step" x1="201" y1="3070" x2="160" y2="3104" stroke="#0af"/>
	    
        
        <!-- 0.007895199978336438 nm; 5.684543984402235 kts -->
        <line class="step" x1="160" y1="3104" x2="130" y2="3115" stroke="#0af"/>
	    
        
        <!-- 0.004686320935120414 nm; 3.374151073286698 kts -->
        <line class="step" x1="130" y1="3115" x2="111" y2="3116" stroke="#06f"/>
	    
        
        <!-- 0.0010199670888022636 nm; 1.8359407598440745 kts -->
        <line class="step" x1="111" y1="3116" x2="107" y2="3117" stroke="#02f"/>
	    
        
        <!-- 0.0008042319309545325 nm; 0.7238087378590793 kts -->
        <line class="step" x1="107" y1="3117" x2="104" y2="3116" stroke="#00f"/>
	    
    </g>
	
</svg>
