


<svg width="1000" height="3265" version="1.1" xmlns="http://www.w3.org/2000/svg">
    <style type="text/css" >
        <![CDATA[
            .segment { fill: none; stroke-width: 4 }
            .segment:hover { stroke-width: 8 }
        ]]>
    </style>
    <g id="legend">
        
        <rect x="0" y="0" width="30" height="20" fill="#00f"/>
        <rect x="0" y="3245" width="30" height="20" fill="#00f"/>
        
        <rect x="30" y="0" width="30" height="20" fill="#02f"/>
        <rect x="30" y="3245" width="30" height="20" fill="#02f"/>
        
        <rect x="60" y="0" width="30" height="20" fill="#04f"/>
        <rect x="60" y="3245" width="30" height="20" fill="#04f"/>
        
        <rect x="90" y="0" width="30" height="20" fill="#06f"/>
        <rect x="90" y="3245" width="30" height="20" fill="#06f"/>
        
        <rect x="120" y="0" width="30" height="20" fill="#08f"/>
        <rect x="120" y="3245" width="30" height="20" fill="#08f"/>
        
        <rect x="150" y="0" width="30" height="20" fill="#0af"/>
        <rect x="150" y="3245" width="30" height="20" fill="#0af"/>
        
        <rect x="180" y="0" width="30" height="20" fill="#0cf"/>
        <rect x="180" y="3245" width="30" height="20" fill="#0cf"/>
        
        <rect x="210" y="0" width="30" height="20" fill="#0ef"/>
        <rect x="210" y="3245" width="30" height="20" fill="#0ef"/>
        
        <rect x="240" y="0" width="30" height="20" fill="#0ff"/>
        <rect x="240" y="3245" width="30" height="20" fill="#0ff"/>
        
        <rect x="270" y="0" width="30" height="20" fill="#0fb"/>
        <rect x="270" y="3245" width="30" height="20" fill="#0fb"/>
        
        <rect x="300" y="0" width="30" height="20" fill="#0f7"/>
        <rect x="300" y="3245" width="30" height="20" fill="#0f7"/>
        
        <rect x="330" y="0" width="30" height="20" fill="#0f3"/>
        <rect x="330" y="3245" width="30" height="20" fill="#0f3"/>
        
        <rect x="360" y="0" width="30" height="20" fill="#0f0"/>
        <rect x="360" y="3245" width="30" height="20" fill="#0f0"/>
        
        <rect x="390" y="0" width="30" height="20" fill="#4f0"/>
        <rect x="390" y="3245" width="30" height="20" fill="#4f0"/>
        
        <rect x="420" y="0" width="30" height="20" fill="#8f0"/>
        <rect x="420" y="3245" width="30" height="20" fill="#8f0"/>
        
        <rect x="450" y="0" width="30" height="20" fill="#cf0"/>
        <rect x="450" y="3245" width="30" height="20" fill="#cf0"/>
        
        <rect x="480" y="0" width="30" height="20" fill="#ff0"/>
        <rect x="480" y="3245" width="30" height="20" fill="#ff0"/>
        
        <rect x="510" y="0" width="30" height="20" fill="#fd0"/>
        <rect x="510" y="3245" width="30" height="20" fill="#fd0"/>
        
        <rect x="540" y="0" width="30" height="20" fill="#fb0"/>
        <rect x="540" y="3245" width="30" height="20" fill="#fb0"/>
        
        <rect x="570" y="0" width="30" height="20" fill="#f90"/>
        <rect x="570" y="3245" width="30" height="20" fill="#f90"/>
        
        <rect x="600" y="0" width="30" height="20" fill="#f70"/>
        <rect x="600" y="3245" width="30" height="20" fill="#f70"/>
        
        <rect x="630" y="0" width="30" height="20" fill="#f50"/>
        <rect x="630" y="3245" width="30" height="20" fill="#f50"/>
        
        <rect x="660" y="0" width="30" height="20" fill="#f30"/>
        <rect x="660" y="3245" width="30" height="20" fill="#f30"/>
        
        <rect x="690" y="0" width="30" height="20" fill="#f10"/>
        <rect x="690" y="3245" width="30" height="20" fill="#f10"/>
        
        
        <text x="5" y="16" fill="white">0kts</text>
        <text x="5" y="3261" fill="white">0kts</text>
        
        <text x="155" y="16" fill="white">5kts</text>
        <text x="155" y="3261" fill="white">5kts</text>
        
        <text x="305" y="16" fill="white">10kts</text>
        <text x="305" y="3261" fill="white">10kts</text>
        
        <text x="455" y="16" fill="white">15kts</text>
        <text x="455" y="3261" fill="white">15kts</text>
        
        <text x="605" y="16" fill="white">20kts</text>
        <text x="605" y="3261" fill="white">20kts</text>
        
    </g>
    
    <g class="segment">
        
        
        <!-- 0.016796948266675365 nm; 8.63843053714733 kts -->
        <line class="step" x1="182" y1="2994" x2="204" y2="2929" stroke="#0ff"/>
	    
        
        <!-- 0.018106739278855928 nm; 8.148032675485167 kts -->
        <line class="step" x1="204" y1="2929" x2="228" y2="2859" stroke="#0ff"/>
	    
        
        <!-- 0.016066984202582065 nm; 7.230142891161929 kts -->
        <line class="step" x1="228" y1="2859" x2="247" y2="2796" stroke="#0ef"/>
	    
        
        <!-- 0.011270969157768386 nm; 5.79649842399517 kts -->
        <line class="step" x1="247" y1="2796" x2="260" y2="2752" stroke="#0af"/>
	    
        
        <!-- 0.01346764567075905 nm; 5.38705826830362 kts -->
        <line class="step" x1="260" y1="2752" x2="267" y2="2697" stroke="#0af"/>
	    
        
        <!-- 0.014660857300732272 nm; 5.864342920292908 kts -->
        <line class="step" x1="267" y1="2697" x2="275" y2="2638" stroke="#0af"/>
	    
        
        <!-- 0.015992703449114007 nm; 5.757373241681043 kts -->
        <line class="step" x1="275" y1="2638" x2="287" y2="2574" stroke="#0af"/>
	    
        
        <!-- 0.015309982012492281 nm; 5.511593524497221 kts -->
        <line class="step" x1="287" y1="2574" x2="297" y2="2512" stroke="#0af"/>
	    
        
        <!-- 0.013278911846941356 nm; 5.311564738776543 kts -->
        <line class="step" x1="297" y1="2512" x2="306" y2="2459" stroke="#0af"/>
	    
        
        <!-- 0.01394190678714417 nm; 5.576762714857668 kts -->
        <line class="step" x1="306" y1="2459" x2="317" y2="2403" stroke="#0af"/>
	    
        
        <!-- 0.015491262369014342 nm; 5.576854452845163 kts -->
        <line class="step" x1="317" y1="2403" x2="327" y2="2340" stroke="#0af"/>
	    
        
        <!-- 0.011103333070682139 nm; 4.441333228272855 kts -->
        <line class="step" x1="327" y1="2340" x2="333" y2="2295" stroke="#08f"/>
	    
        
        <!-- 0.009164385110019758 nm; 3.665754044007903 kts -->
        <line class="step" x1="333" y1="2295" x2="339" y2="2258" stroke="#06f"/>
	    
        
        <!-- 0.007826775838145044 nm; 3.1307103352580175 kts -->
        <line class="step" x1="339" y1="2258" x2="343" y2="2227" stroke="#06f"/>
	    
        
        <!-- 0.006510634791254006 nm; 2.6042539165016025 kts -->
        <line class="step" x1="343" y1="2227" x2="343" y2="2200" stroke="#04f"/>
	    
        
        <!-- 0.004753418642570048 nm; 2.8520511855420287 kts -->
        <line class="step" x1="343" y1="2200" x2="346" y2="2181" stroke="#04f"/>
	    
        
        <!-- 0.011232065849625765 nm; 3.3696197548877294 kts -->
        <line class="step" x1="346" y1="2181" x2="344" y2="2135" stroke="#06f"/>
	    
        
        <!-- 0.007247463336582572 nm; 2.8989853346330285 kts -->
        <line class="step" x1="344" y1="2135" x2="345" y2="2105" stroke="#04f"/>
	    
        
        <!-- 0.007968185749345795 nm; 2.868546869764486 kts -->
        <line class="step" x1="345" y1="2105" x2="346" y2="2073" stroke="#04f"/>
	    
        
        <!-- 0.005261205692405532 nm; 2.705762927522845 kts -->
        <line class="step" x1="346" y1="2073" x2="346" y2="2051" stroke="#04f"/>
	    
        
        <!-- 0.0068229823092281205 nm; 4.093789385536872 kts -->
        <line class="step" x1="346" y1="2051" x2="344" y2="2023" stroke="#08f"/>
	    
        
        <!-- 0.014327375502027711 nm; 5.1578551807299755 kts -->
        <line class="step" x1="344" y1="2023" x2="344" y2="1965" stroke="#0af"/>
	    
        
        <!-- 0.012259947069042014 nm; 5.516976181068906 kts -->
        <line class="step" x1="344" y1="1965" x2="342" y2="1915" stroke="#0af"/>
	    
        
        <!-- 0.010543831010813524 nm; 6.3262986064881135 kts -->
        <line class="step" x1="342" y1="1915" x2="339" y2="1872" stroke="#0cf"/>
	    
        
        <!-- 0.010457783534272558 nm; 6.274670120563535 kts -->
        <line class="step" x1="339" y1="1872" x2="340" y2="1829" stroke="#0cf"/>
	    
        
        <!-- 0.01304925646442477 nm; 6.711046181704168 kts -->
        <line class="step" x1="340" y1="1829" x2="342" y2="1776" stroke="#0cf"/>
	    
        
        <!-- 0.015223980524767698 nm; 6.850791236145464 kts -->
        <line class="step" x1="342" y1="1776" x2="344" y2="1714" stroke="#0cf"/>
	    
        
        <!-- 0.00953736433583302 nm; 6.866902321799775 kts -->
        <line class="step" x1="344" y1="1714" x2="344" y2="1675" stroke="#0cf"/>
	    
        
        <!-- 0.00970694723986242 nm; 6.989002012700943 kts -->
        <line class="step" x1="344" y1="1675" x2="337" y2="1636" stroke="#0cf"/>
	    
        
        <!-- 0.01383346570380627 nm; 6.2250595667128215 kts -->
        <line class="step" x1="337" y1="1636" x2="327" y2="1580" stroke="#0cf"/>
	    
        
        <!-- 0.018381628797992607 nm; 6.015805788433943 kts -->
        <line class="step" x1="327" y1="1580" x2="315" y2="1506" stroke="#0cf"/>
	    
        
        <!-- 0.01870880505650441 nm; 6.7351698203415875 kts -->
        <line class="step" x1="315" y1="1506" x2="304" y2="1430" stroke="#0cf"/>
	    
        
        <!-- 0.012909836062074487 nm; 5.163934424829795 kts -->
        <line class="step" x1="304" y1="1430" x2="292" y2="1379" stroke="#0af"/>
	    
        
        <!-- 0.006422662034251544 nm; 3.853597220550926 kts -->
        <line class="step" x1="292" y1="1379" x2="288" y2="1353" stroke="#06f"/>
	    
        
        <!-- 0.011652964226034589 nm; 4.661185690413835 kts -->
        <line class="step" x1="288" y1="1353" x2="281" y2="1306" stroke="#08f"/>
	    
        
        <!-- 0.013873055424469297 nm; 4.994299952808947 kts -->
        <line class="step" x1="281" y1="1306" x2="270" y2="1250" stroke="#08f"/>
	    
        
        <!-- 0.013038412217025253 nm; 5.215364886810101 kts -->
        <line class="step" x1="270" y1="1250" x2="261" y2="1198" stroke="#0af"/>
	    
        
        <!-- 0.009312317507347175 nm; 3.72492700293887 kts -->
        <line class="step" x1="261" y1="1198" x2="254" y2="1160" stroke="#06f"/>
	    
        
        <!-- 0.007915226537527511 nm; 3.56185194188738 kts -->
        <line class="step" x1="254" y1="1160" x2="251" y2="1128" stroke="#06f"/>
	    
        
        <!-- 0.008342930758609713 nm; 4.290650104427852 kts -->
        <line class="step" x1="251" y1="1128" x2="248" y2="1094" stroke="#08f"/>
	    
        
        <!-- 0.014843660574538549 nm; 5.937464229815419 kts -->
        <line class="step" x1="248" y1="1094" x2="238" y2="1034" stroke="#0af"/>
	    
        
        <!-- 0.001403438589992988 nm; 5.052378923974756 kts -->
        <line class="step" x1="238" y1="1034" x2="235" y2="1029" stroke="#0af"/>
	    
        
        <!-- 0.008977908963459338 nm; 4.617210324064803 kts -->
        <line class="step" x1="235" y1="1029" x2="227" y2="994" stroke="#08f"/>
	    
        
        <!-- 0.0069247311833596364 nm; 4.154838710015782 kts -->
        <line class="step" x1="227" y1="994" x2="221" y2="966" stroke="#08f"/>
	    
        
        <!-- 0.006035339410582609 nm; 3.6212036463495654 kts -->
        <line class="step" x1="221" y1="966" x2="216" y2="942" stroke="#06f"/>
	    
        
        <!-- 0.009661363400923878 nm; 4.968701177617994 kts -->
        <line class="step" x1="216" y1="942" x2="214" y2="902" stroke="#08f"/>
	    
        
        <!-- 0.012249295199401884 nm; 7.34957711964113 kts -->
        <line class="step" x1="214" y1="902" x2="214" y2="852" stroke="#0ef"/>
	    
        
        <!-- 0.006272648776957224 nm; 7.527178532348668 kts -->
        <line class="step" x1="214" y1="852" x2="213" y2="827" stroke="#0ef"/>
	    
        
        <!-- 0.01054035279561551 nm; 7.589054012843167 kts -->
        <line class="step" x1="213" y1="827" x2="212" y2="784" stroke="#0ef"/>
	    
        
        <!-- 0.007914872880639088 nm; 9.497847456766905 kts -->
        <line class="step" x1="212" y1="784" x2="232" y2="758" stroke="#0fb"/>
	    
        
        <!-- 0.00625716393564232 nm; 11.262895084156176 kts -->
        <line class="step" x1="232" y1="758" x2="257" y2="751" stroke="#0f3"/>
	    
        
        <!-- 0.02517265257840862 nm; 10.069061031363448 kts -->
        <line class="step" x1="257" y1="751" x2="357" y2="727" stroke="#0f7"/>
	    
        
        <!-- 0.00758861747596255 nm; 9.10634097115506 kts -->
        <line class="step" x1="357" y1="727" x2="386" y2="717" stroke="#0fb"/>
	    
        
        <!-- 0.014186548665222435 nm; 8.51192919913346 kts -->
        <line class="step" x1="386" y1="717" x2="444" y2="713" stroke="#0ff"/>
	    
        
        <!-- 0.012650919473421146 nm; 6.506187157759447 kts -->
        <line class="step" x1="444" y1="713" x2="495" y2="708" stroke="#0cf"/>
	    
        
        <!-- 0.008169747961349848 nm; 7.352773165214864 kts -->
        <line class="step" x1="495" y1="708" x2="528" y2="699" stroke="#0ef"/>
	    
        
        <!-- 0.015326099586395754 nm; 9.195659751837452 kts -->
        <line class="step" x1="528" y1="699" x2="586" y2="676" stroke="#0fb"/>
	    
        
        <!-- 0.023656348597479525 nm; 8.516285495092628 kts -->
        <line class="step" x1="586" y1="676" x2="682" y2="671" stroke="#0ff"/>
	    
        
        <!-- 0.011517558105680526 nm; 5.923315597207128 kts -->
        <line class="step" x1="682" y1="671" x2="729" y2="670" stroke="#0af"/>
	    
        
        <!-- 0.014638690113647216 nm; 7.528469201304283 kts -->
        <line class="step" x1="729" y1="670" x2="785" y2="648" stroke="#0ef"/>
	    
        
        <!-- 0.005473225505261706 nm; 9.85180590947107 kts -->
        <line class="step" x1="785" y1="648" x2="802" y2="634" stroke="#0fb"/>
	    
        
        <!-- 0.012696455946003486 nm; 7.617873567602091 kts -->
        <line class="step" x1="802" y1="634" x2="807" y2="582" stroke="#0ef"/>
	    
        
        <!-- 0.007071891038215595 nm; 5.091761547515228 kts -->
        <line class="step" x1="807" y1="582" x2="801" y2="554" stroke="#0af"/>
	    
        
        <!-- 0.011922053667783284 nm; 5.364924150502477 kts -->
        <line class="step" x1="801" y1="554" x2="794" y2="506" stroke="#0af"/>
	    
        
        <!-- 0.01360124765017054 nm; 5.440499060068215 kts -->
        <line class="step" x1="794" y1="506" x2="790" y2="450" stroke="#0af"/>
	    
        
        <!-- 0.009657118207623569 nm; 4.966517935349264 kts -->
        <line class="step" x1="790" y1="450" x2="786" y2="411" stroke="#08f"/>
	    
        
        <!-- 0.008852349279433718 nm; 4.552636772280198 kts -->
        <line class="step" x1="786" y1="411" x2="781" y2="375" stroke="#08f"/>
	    
        
        <!-- 0.0092767561668118 nm; 5.566053700087079 kts -->
        <line class="step" x1="781" y1="375" x2="772" y2="338" stroke="#0af"/>
	    
        
        <!-- 0.0059846253732735435 nm; 4.308930268756951 kts -->
        <line class="step" x1="772" y1="338" x2="766" y2="315" stroke="#08f"/>
	    
        
        <!-- 0.007214592277734284 nm; 3.710361742834775 kts -->
        <line class="step" x1="766" y1="315" x2="760" y2="286" stroke="#06f"/>
	    
        
        <!-- 0.011082662530115634 nm; 6.64959751806938 kts -->
        <line class="step" x1="760" y1="286" x2="755" y2="241" stroke="#0cf"/>
	    
        
        <!-- 0.01996722667996646 nm; 7.9868906719865835 kts -->
        <line class="step" x1="755" y1="241" x2="743" y2="160" stroke="#0ef"/>
	    
        
        <!-- 0.003297345908304131 nm; 3.9568150899649566 kts -->
        <line class="step" x1="743" y1="160" x2="735" y2="149" stroke="#06f"/>
	    
        
        <!-- 0.003187193253812461 nm; 1.6391279591035515 kts -->
        <line class="step" x1="735" y1="149" x2="723" y2="153" stroke="#02f"/>
	    
        
        <!-- 0.004303353187659197 nm; 3.098414295114622 kts -->
        <line class="step" x1="723" y1="153" x2="709" y2="163" stroke="#06f"/>
	    
        
        <!-- 0.0093128301544159 nm; 4.78945550798532 kts -->
        <line class="step" x1="709" y1="163" x2="677" y2="184" stroke="#08f"/>
	    
        
        <!-- 0.009793939633978933 nm; 5.87636378038736 kts -->
        <line class="step" x1="677" y1="184" x2="644" y2="206" stroke="#0af"/>
	    
        
        <!-- 0.011501400380423103 nm; 8.281008273904634 kts -->
        <line class="step" x1="644" y1="206" x2="617" y2="245" stroke="#0ff"/>
	    
        
        <!-- 0.00813490843384521 nm; 9.76189012061425 kts -->
        <line class="step" x1="617" y1="245" x2="620" y2="278" stroke="#0fb"/>
	    
        
        <!-- 0.0198794294234604 nm; 10.223706560636778 kts -->
        <line class="step" x1="620" y1="278" x2="636" y2="357" stroke="#0f7"/>
	    
        
        <!-- 0.005919543986849558 nm; 10.655179176329204 kts -->
        <line class="step" x1="636" y1="357" x2="637" y2="382" stroke="#0f7"/>
	    
        
        <!-- 0.02022439843430144 nm; 10.401119194783599 kts -->
        <line class="step" x1="637" y1="382" x2="626" y2="463" stroke="#0f7"/>
	    
        
        <!-- 0.02242726611015631 nm; 10.092269749570338 kts -->
        <line class="step" x1="626" y1="463" x2="612" y2="554" stroke="#0f7"/>
	    
        
        <!-- 0.01864164338031824 nm; 9.587130881306525 kts -->
        <line class="step" x1="612" y1="554" x2="601" y2="629" stroke="#0fb"/>
	    
        
        <!-- 0.026657885567156224 nm; 10.66315422686249 kts -->
        <line class="step" x1="601" y1="629" x2="581" y2="736" stroke="#0f7"/>
	    
        
        <!-- 0.021020617287066404 nm; 10.810603176205579 kts -->
        <line class="step" x1="581" y1="736" x2="569" y2="821" stroke="#0f7"/>
	    
        
        <!-- 0.012715144786845899 nm; 11.443630308161309 kts -->
        <line class="step" x1="569" y1="821" x2="573" y2="873" stroke="#0f3"/>
	    
        
        <!-- 0.025189077999856296 nm; 11.335085099935332 kts -->
        <line class="step" x1="573" y1="873" x2="566" y2="976" stroke="#0f3"/>
	    
        
        <!-- 0.022139255866449922 nm; 11.385903017031389 kts -->
        <line class="step" x1="566" y1="976" x2="548" y2="1065" stroke="#0f3"/>
	    
        
        <!-- 0.02157518961048775 nm; 9.708835324719487 kts -->
        <line class="step" x1="548" y1="1065" x2="527" y2="1150" stroke="#0fb"/>
	    
        
        <!-- 0.010846682982209357 nm; 9.762014683988422 kts -->
        <line class="step" x1="527" y1="1150" x2="517" y2="1193" stroke="#0fb"/>
	    
        
        <!-- 0.016282628224903378 nm; 11.723492321930431 kts -->
        <line class="step" x1="517" y1="1193" x2="524" y2="1259" stroke="#0f3"/>
	    
        
        <!-- 0.03189904498355728 nm; 12.75961799342291 kts -->
        <line class="step" x1="524" y1="1259" x2="541" y2="1389" stroke="#0f0"/>
	    
        
        <!-- 0.02965835574266586 nm; 13.346260084199637 kts -->
        <line class="step" x1="541" y1="1389" x2="559" y2="1508" stroke="#4f0"/>
	    
        
        <!-- 0.003699515612331372 nm; 13.318256204392938 kts -->
        <line class="step" x1="559" y1="1508" x2="563" y2="1523" stroke="#4f0"/>
	    
        
        <!-- 0.017013693351497144 nm; 12.249859213077944 kts -->
        <line class="step" x1="563" y1="1523" x2="591" y2="1587" stroke="#0f0"/>
	    
        
        <!-- 0.021961748886503926 nm; 11.294613713059162 kts -->
        <line class="step" x1="591" y1="1587" x2="621" y2="1671" stroke="#0f3"/>
	    
        
        <!-- 0.011058114361126909 nm; 9.952302925014218 kts -->
        <line class="step" x1="621" y1="1671" x2="617" y2="1716" stroke="#0fb"/>
	    
        
        <!-- 0.00446235189753404 nm; 8.032233415561272 kts -->
        <line class="step" x1="617" y1="1716" x2="606" y2="1730" stroke="#0ff"/>
	    
        
        <!-- 0.02246416993315253 nm; 8.08710117593491 kts -->
        <line class="step" x1="606" y1="1730" x2="545" y2="1799" stroke="#0ff"/>
	    
        
        <!-- 0.014806740417109047 nm; 7.614895071656082 kts -->
        <line class="step" x1="545" y1="1799" x2="502" y2="1841" stroke="#0ef"/>
	    
        
        <!-- 0.012307780162729376 nm; 8.86160171716515 kts -->
        <line class="step" x1="502" y1="1841" x2="475" y2="1884" stroke="#0ff"/>
	    
        
        <!-- 0.020027108025700274 nm; 10.299655556074427 kts -->
        <line class="step" x1="475" y1="1884" x2="459" y2="1964" stroke="#0f7"/>
	    
        
        <!-- 0.019652459484933823 nm; 10.106979163680252 kts -->
        <line class="step" x1="459" y1="1964" x2="444" y2="2043" stroke="#0f7"/>
	    
        
        <!-- 0.021181004203753198 nm; 10.893087876215931 kts -->
        <line class="step" x1="444" y1="2043" x2="420" y2="2126" stroke="#0f7"/>
	    
        
        <!-- 0.025083666829874493 nm; 11.287650073443523 kts -->
        <line class="step" x1="420" y1="2126" x2="389" y2="2224" stroke="#0f3"/>
	    
        
        <!-- 0.019730916671034424 nm; 11.838550002620654 kts -->
        <line class="step" x1="389" y1="2224" x2="367" y2="2302" stroke="#0f3"/>
	    
        
        <!-- 0.022882689847409075 nm; 11.76824049295324 kts -->
        <line class="step" x1="367" y1="2302" x2="340" y2="2391" stroke="#0f3"/>
	    
        
        <!-- 0.02373634742095703 nm; 12.207264387920759 kts -->
        <line class="step" x1="340" y1="2391" x2="318" y2="2486" stroke="#0f0"/>
	    
        
        <!-- 0.017550841985369617 nm; 10.530505191221769 kts -->
        <line class="step" x1="318" y1="2486" x2="303" y2="2556" stroke="#0f7"/>
	    
        
        <!-- 0.021408881495326413 nm; 11.010281911882156 kts -->
        <line class="step" x1="303" y1="2556" x2="280" y2="2640" stroke="#0f3"/>
	    
        
        <!-- 0.024895423575135845 nm; 12.80336069578415 kts -->
        <line class="step" x1="280" y1="2640" x2="259" y2="2740" stroke="#0f0"/>
	    
        
        <!-- 0.02448215077669186 nm; 12.59082039944153 kts -->
        <line class="step" x1="259" y1="2740" x2="249" y2="2839" stroke="#0f0"/>
	    
        
        <!-- 0.024092677268620074 nm; 10.841704770879034 kts -->
        <line class="step" x1="249" y1="2839" x2="244" y2="2937" stroke="#0f7"/>
	    
        
        <!-- 0.02063364420473543 nm; 9.285139892130942 kts -->
        <line class="step" x1="244" y1="2937" x2="226" y2="3020" stroke="#0fb"/>
	    
        
        <!-- 0.006945258882262345 nm; 8.334310658714813 kts -->
        <line class="step" x1="226" y1="3020" x2="217" y2="3047" stroke="#0ff"/>
	    
        
        <!-- 0.0069639472538311955 nm; 6.267552528448076 kts -->
        <line class="step" x1="217" y1="3047" x2="201" y2="3070" stroke="#0cf"/>
	    
        
        <!-- 0.012939986302175919 nm; 5.1759945208703675 kts -->
        <line class="step" x1="201" y1="3070" x2="160" y2="3104" stroke="#0af"/>
	    
        
        <!-- 0.007900374790920402 nm; 5.6882698494626895 kts -->
        <line class="step" x1="160" y1="3104" x2="130" y2="3115" stroke="#0af"/>
	    
        
        <!-- 0.0046893925270514725 nm; 3.37636261947706 kts -->
        <line class="step" x1="130" y1="3115" x2="111" y2="3116" stroke="#06f"/>
	    
        
        <!-- 0.0010206356137973042 nm; 1.8371441048351476 kts -->
        <line class="step" x1="111" y1="3116" x2="107" y2="3117" stroke="#02f"/>
	    
        
        <!-- 0.0008047590549701556 nm; 0.7242831494731401 kts -->
        <line class="step" x1="107" y1="3117" x2="104" y2="3116" stroke="#00f"/>
	    
    </g>
	
</svg>
