
<svg version="1.1" xmlns="http://www.w3.org/2000/svg"
    width="1000" height="3265" viewBox="0 0 1000 3265">
    <style type="text/css" >
        <![CDATA[
            .segment { fill: none; stroke-width: 4 }
            .segment:hover { stroke-width: 8 }
        ]]>
    </style>
    <g id="legend">
        
        <rect x="0" y="0" width="30" height="20" fill="#00f"/>
        <rect x="0" y="3245" width="30" height="20" fill="#00f"/>
        
        <rect x="30" y="0" width="30" height="20" fill="#02f"/>
        <rect x="30" y="3245" width="30" height="20" fill="#02f"/>
        
        <rect x="60" y="0" width="30" height="20" fill="#04f"/>
        <rect x="60" y="3245" width="30" height="20" fill="#04f"/>
        
        <rect x="90" y="0" width="30" height="20" fill="#06f"/>
        <rect x="90" y="3245" width="30" height="20" fill="#06f"/>
        
        <rect x="120" y="0" width="30" height="20" fill="#08f"/>
        <rect x="120" y="3245" width="30" height="20" fill="#08f"/>
        
        <rect x="150" y="0" width="30" height="20" fill="#0af"/>
        <rect x="150" y="3245" width="30" height="20" fill="#0af"/>
        
        <rect x="180" y="0" width="30" height="20" fill="#0cf"/>
        <rect x="180" y="3245" width="30" height="20" fill="#0cf"/>
        
        <rect x="210" y="0" width="30" height="20" fill="#0ef"/>
        <rect x="210" y="3245" width="30" height="20" fill="#0ef"/>
        
        <rect x="240" y="0" width="30" height="20" fill="#0ff"/>
        <rect x="240" y="3245" width="30" height="20" fill="#0ff"/>
        
        <rect x="270" y="0" width="30" height="20" fill="#0fb"/>
        <rect x="270" y="3245" width="30" height="20" fill="#0fb"/>
        
        <rect x="300" y="0" width="30" height="20" fill="#0f7"/>
        <rect x="300" y="3245" width="30" height="20" fill="#0f7"/>
        
        <rect x="330" y="0" width="30" height="20" fill="#0f3"/>
        <rect x="330" y="3245" width="30" height="20" fill="#0f3"/>
        
        <rect x="360" y="0" width="30" height="20" fill="#0f0"/>
        <rect x="360" y="3245" width="30" height="20" fill="#0f0"/>
        
        <rect x="390" y="0" width="30" height="20" fill="#4f0"/>
        <rect x="390" y="3245" width="30" height="20" fill="#4f0"/>
        
        <rect x="420" y="0" width="30" height="20" fill="#8f0"/>
        <rect x="420" y="3245" width="30" height="20" fill="#8f0"/>
        
        <rect x="450" y="0" width="30" height="20" fill="#cf0"/>
        <rect x="450" y="3245" width="30" height="20" fill="#cf0"/>
        
        <rect x="480" y="0" width="30" height="20" fill="#ff0"/>
        <rect x="480" y="3245" width="30" height="20" fill="#ff0"/>
        
        <rect x="510" y="0" width="30" height="20" fill="#fd0"/>
        <rect x="510" y="3245" width="30" height="20" fill="#fd0"/>
        
        <rect x="540" y="0" width="30" height="20" fill="#fb0"/>
        <rect x="540" y="3245" width="30" height="20" fill="#fb0"/>
        
        <rect x="570" y="0" width="30" height="20" fill="#f90"/>
        <rect x="570" y="3245" width="30" height="20" fill="#f90"/>
        
        <rect x="600" y="0" width="30" height="20" fill="#f70"/>
        <rect x="600" y="3245" width="30" height="20" fill="#f70"/>
        
        <rect x="630" y="0" width="30" height="20" fill="#f50"/>
        <rect x="630" y="3245" width="30" height="20" fill="#f50"/>
        
        <rect x="660" y="0" width="30" height="20" fill="#f30"/>
        <rect x="660" y="3245" width="30" height="20" fill="#f30"/>
        
        <rect x="690" y="0" width="30" height="20" fill="#f10"/>
        <rect x="690" y="3245" width="30" height="20" fill="#f10"/>
        
        
        <text x="5" y="16" fill="white">0kts</text>
        <text x="5" y="3261" fill="white">0kts</text>
        
        <text x="155" y="16" fill="white">5kts</text>
        <text x="155" y="3261" fill="white">5kts</text>
        
        <text x="305" y="16" fill="white">10kts</text>
        <text x="305" y="3261" fill="white">10kts</text>
        
        <text x="455" y="16" fill="white">15kts</text>
        <text x="455" y="3261" fill="white">15kts</text>
        
        <text x="605" y="16" fill="white">20kts</text>
        <text x="605" y="3261" fill="white">20kts</text>
        
    </g>
    
    <g class="segment">
        
        
        <line class="step" x1="182" y1="2994" x2="204" y2="2929" stroke="#0ff">
        <title> 18:29:07: 31.1 m @ 8.6 kts &#x2191; 19° NNE = 0.02 nm</title>
        </line>
	    
        <line class="step" x1="204" y1="2929" x2="228" y2="2859" stroke="#0ff">
        <title> 18:29:15: 33.5 m @ 8.1 kts &#x2191; 19° NNE = 0.03 nm</title>
        </line>
	    
        <line class="step" x1="228" y1="2859" x2="247" y2="2796" stroke="#0ef">
        <title> 18:29:23: 29.8 m @ 7.2 kts &#x2191; 17° NNE = 0.05 nm</title>
        </line>
	    
        <line class="step" x1="247" y1="2796" x2="260" y2="2752" stroke="#0af">
        <title> 18:29:30: 20.9 m @ 5.8 kts &#x2191; 16° NNE = 0.06 nm</title>
        </line>
	    
        <line class="step" x1="260" y1="2752" x2="267" y2="2697" stroke="#0af">
        <title> 18:29:39: 24.9 m @ 5.4 kts &#x2191; 8° N = 0.08 nm</title>
        </line>
	    
        <line class="step" x1="267" y1="2697" x2="275" y2="2638" stroke="#0af">
        <title> 18:29:48: 27.2 m @ 5.9 kts &#x2191; 7° N = 0.09 nm</title>
        </line>
	    
        <line class="step" x1="275" y1="2638" x2="287" y2="2574" stroke="#0af">
        <title> 18:29:58: 29.6 m @ 5.8 kts &#x2191; 10° N = 0.11 nm</title>
        </line>
	    
        <line class="step" x1="287" y1="2574" x2="297" y2="2512" stroke="#0af">
        <title> 18:30:08: 28.4 m @ 5.5 kts &#x2191; 10° N = 0.12 nm</title>
        </line>
	    
        <line class="step" x1="297" y1="2512" x2="306" y2="2459" stroke="#0af">
        <title> 18:30:17: 24.6 m @ 5.3 kts &#x2191; 9° N = 0.13 nm</title>
        </line>
	    
        <line class="step" x1="306" y1="2459" x2="317" y2="2403" stroke="#0af">
        <title> 18:30:26: 25.8 m @ 5.6 kts &#x2191; 11° N = 0.15 nm</title>
        </line>
	    
        <line class="step" x1="317" y1="2403" x2="327" y2="2340" stroke="#0af">
        <title> 18:30:36: 28.7 m @ 5.6 kts &#x2191; 9° N = 0.16 nm</title>
        </line>
	    
        <line class="step" x1="327" y1="2340" x2="333" y2="2295" stroke="#08f">
        <title> 18:30:45: 20.6 m @ 4.4 kts &#x2191; 8° N = 0.18 nm</title>
        </line>
	    
        <line class="step" x1="333" y1="2295" x2="339" y2="2258" stroke="#06f">
        <title> 18:30:54: 17.0 m @ 3.7 kts &#x2191; 8° N = 0.18 nm</title>
        </line>
	    
        <line class="step" x1="339" y1="2258" x2="343" y2="2227" stroke="#06f">
        <title> 18:31:03: 14.5 m @ 3.1 kts &#x2191; 7° N = 0.19 nm</title>
        </line>
	    
        <line class="step" x1="343" y1="2227" x2="343" y2="2200" stroke="#04f">
        <title> 18:31:12: 12.1 m @ 2.6 kts &#x2191; 2° N = 0.20 nm</title>
        </line>
	    
        <line class="step" x1="343" y1="2200" x2="346" y2="2181" stroke="#04f">
        <title> 18:31:18: 8.8 m @ 2.9 kts &#x2191; 7° N = 0.20 nm</title>
        </line>
	    
        <line class="step" x1="346" y1="2181" x2="344" y2="2135" stroke="#06f">
        <title> 18:31:30: 20.8 m @ 3.4 kts &#x2191; 358° N = 0.21 nm</title>
        </line>
	    
        <line class="step" x1="344" y1="2135" x2="345" y2="2105" stroke="#04f">
        <title> 18:31:39: 13.4 m @ 2.9 kts &#x2191; 1° N = 0.22 nm</title>
        </line>
	    
        <line class="step" x1="345" y1="2105" x2="346" y2="2073" stroke="#04f">
        <title> 18:31:49: 14.8 m @ 2.9 kts &#x2191; 1° N = 0.23 nm</title>
        </line>
	    
        <line class="step" x1="346" y1="2073" x2="346" y2="2051" stroke="#04f">
        <title> 18:31:56: 9.7 m @ 2.7 kts &#x2191; 2° N = 0.24 nm</title>
        </line>
	    
        <line class="step" x1="346" y1="2051" x2="344" y2="2023" stroke="#08f">
        <title> 18:32:02: 12.6 m @ 4.1 kts &#x2191; 356° N = 0.24 nm</title>
        </line>
	    
        <line class="step" x1="344" y1="2023" x2="344" y2="1965" stroke="#0af">
        <title> 18:32:12: 26.5 m @ 5.2 kts &#x2191; 0° N = 0.26 nm</title>
        </line>
	    
        <line class="step" x1="344" y1="1965" x2="342" y2="1915" stroke="#0af">
        <title> 18:32:20: 22.7 m @ 5.5 kts &#x2191; 358° N = 0.27 nm</title>
        </line>
	    
        <line class="step" x1="342" y1="1915" x2="339" y2="1872" stroke="#0cf">
        <title> 18:32:26: 19.5 m @ 6.3 kts &#x2191; 356° N = 0.28 nm</title>
        </line>
	    
        <line class="step" x1="339" y1="1872" x2="340" y2="1829" stroke="#0cf">
        <title> 18:32:32: 19.4 m @ 6.3 kts &#x2191; 0° N = 0.29 nm</title>
        </line>
	    
        <line class="step" x1="340" y1="1829" x2="342" y2="1776" stroke="#0cf">
        <title> 18:32:39: 24.2 m @ 6.7 kts &#x2191; 2° N = 0.30 nm</title>
        </line>
	    
        <line class="step" x1="342" y1="1776" x2="344" y2="1714" stroke="#0cf">
        <title> 18:32:47: 28.2 m @ 6.8 kts &#x2191; 2° N = 0.32 nm</title>
        </line>
	    
        <line class="step" x1="344" y1="1714" x2="344" y2="1675" stroke="#0cf">
        <title> 18:32:52: 17.7 m @ 6.9 kts &#x2191; 359° N = 0.33 nm</title>
        </line>
	    
        <line class="step" x1="344" y1="1675" x2="337" y2="1636" stroke="#0cf">
        <title> 18:32:57: 18.0 m @ 7.0 kts &#x2191; 350° N = 0.34 nm</title>
        </line>
	    
        <line class="step" x1="337" y1="1636" x2="327" y2="1580" stroke="#0cf">
        <title> 18:33:05: 25.6 m @ 6.2 kts &#x2191; 350° N = 0.35 nm</title>
        </line>
	    
        <line class="step" x1="327" y1="1580" x2="315" y2="1506" stroke="#0cf">
        <title> 18:33:16: 34.0 m @ 6.0 kts &#x2191; 351° N = 0.37 nm</title>
        </line>
	    
        <line class="step" x1="315" y1="1506" x2="304" y2="1430" stroke="#0cf">
        <title> 18:33:26: 34.6 m @ 6.7 kts &#x2191; 352° N = 0.39 nm</title>
        </line>
	    
        <line class="step" x1="304" y1="1430" x2="292" y2="1379" stroke="#0af">
        <title> 18:33:35: 23.9 m @ 5.2 kts &#x2191; 347° NNW = 0.40 nm</title>
        </line>
	    
        <line class="step" x1="292" y1="1379" x2="288" y2="1353" stroke="#06f">
        <title> 18:33:41: 11.9 m @ 3.9 kts &#x2191; 352° N = 0.41 nm</title>
        </line>
	    
        <line class="step" x1="288" y1="1353" x2="281" y2="1306" stroke="#08f">
        <title> 18:33:50: 21.6 m @ 4.7 kts &#x2191; 351° N = 0.42 nm</title>
        </line>
	    
        <line class="step" x1="281" y1="1306" x2="270" y2="1250" stroke="#08f">
        <title> 18:34:00: 25.7 m @ 5.0 kts &#x2191; 350° N = 0.43 nm</title>
        </line>
	    
        <line class="step" x1="270" y1="1250" x2="261" y2="1198" stroke="#0af">
        <title> 18:34:09: 24.1 m @ 5.2 kts &#x2191; 350° N = 0.45 nm</title>
        </line>
	    
        <line class="step" x1="261" y1="1198" x2="254" y2="1160" stroke="#06f">
        <title> 18:34:18: 17.2 m @ 3.7 kts &#x2191; 350° N = 0.46 nm</title>
        </line>
	    
        <line class="step" x1="254" y1="1160" x2="251" y2="1128" stroke="#06f">
        <title> 18:34:26: 14.7 m @ 3.6 kts &#x2191; 354° N = 0.46 nm</title>
        </line>
	    
        <line class="step" x1="251" y1="1128" x2="248" y2="1094" stroke="#08f">
        <title> 18:34:33: 15.5 m @ 4.3 kts &#x2191; 355° N = 0.47 nm</title>
        </line>
	    
        <line class="step" x1="248" y1="1094" x2="238" y2="1034" stroke="#0af">
        <title> 18:34:42: 27.5 m @ 5.9 kts &#x2191; 350° N = 0.49 nm</title>
        </line>
	    
        <line class="step" x1="238" y1="1034" x2="235" y2="1029" stroke="#0af">
        <title> 18:34:43: 2.6 m @ 5.0 kts &#x2191; 334° NNW = 0.49 nm</title>
        </line>
	    
        <line class="step" x1="235" y1="1029" x2="227" y2="994" stroke="#08f">
        <title> 18:34:50: 16.6 m @ 4.6 kts &#x2191; 347° NNW = 0.50 nm</title>
        </line>
	    
        <line class="step" x1="227" y1="994" x2="221" y2="966" stroke="#08f">
        <title> 18:34:56: 12.8 m @ 4.2 kts &#x2191; 348° NNW = 0.50 nm</title>
        </line>
	    
        <line class="step" x1="221" y1="966" x2="216" y2="942" stroke="#06f">
        <title> 18:35:02: 11.2 m @ 3.6 kts &#x2191; 348° NNW = 0.51 nm</title>
        </line>
	    
        <line class="step" x1="216" y1="942" x2="214" y2="902" stroke="#08f">
        <title> 18:35:09: 17.9 m @ 5.0 kts &#x2191; 357° N = 0.52 nm</title>
        </line>
	    
    </g>
	
    <g class="segment">
        
        <line class="step" x1="214" y1="902" x2="214" y2="852" stroke="#0ef">
        <title> 18:35:15: 22.7 m @ 7.3 kts &#x2191; 0° N = 0.53 nm</title>
        </line>
        
        
        <line class="step" x1="214" y1="852" x2="213" y2="827" stroke="#0ef">
        <title> 18:35:18: 11.6 m @ 7.5 kts &#x2191; 358° N = 0.54 nm</title>
        </line>
	    
        <line class="step" x1="213" y1="827" x2="212" y2="784" stroke="#0ef">
        <title> 18:35:23: 19.5 m @ 7.6 kts &#x2191; 359° N = 0.55 nm</title>
        </line>
	    
        <line class="step" x1="212" y1="784" x2="232" y2="758" stroke="#0fb">
        <title> 18:35:26: 14.7 m @ 9.5 kts &#x2191; 38° NE = 0.56 nm</title>
        </line>
	    
        <line class="step" x1="232" y1="758" x2="257" y2="751" stroke="#0f3">
        <title> 18:35:28: 11.6 m @ 11.3 kts &#x2191; 73° ENE = 0.56 nm</title>
        </line>
	    
        <line class="step" x1="257" y1="751" x2="357" y2="727" stroke="#0f7">
        <title> 18:35:37: 46.6 m @ 10.1 kts &#x2191; 77° ENE = 0.59 nm</title>
        </line>
	    
    </g>
	
    <g class="segment">
        
        <line class="step" x1="357" y1="727" x2="386" y2="717" stroke="#0fb">
        <title> 18:35:40: 14.1 m @ 9.1 kts &#x2191; 72° ENE = 0.60 nm</title>
        </line>
        
        
        <line class="step" x1="386" y1="717" x2="444" y2="713" stroke="#0ff">
        <title> 18:35:46: 26.3 m @ 8.5 kts &#x2191; 86° E = 0.61 nm</title>
        </line>
	    
        <line class="step" x1="444" y1="713" x2="495" y2="708" stroke="#0cf">
        <title> 18:35:53: 23.4 m @ 6.5 kts &#x2191; 84° E = 0.62 nm</title>
        </line>
	    
        <line class="step" x1="495" y1="708" x2="528" y2="699" stroke="#0ef">
        <title> 18:35:57: 15.1 m @ 7.3 kts &#x2191; 76° ENE = 0.63 nm</title>
        </line>
	    
        <line class="step" x1="528" y1="699" x2="586" y2="676" stroke="#0fb">
        <title> 18:36:03: 28.4 m @ 9.2 kts &#x2191; 68° ENE = 0.65 nm</title>
        </line>
	    
        <line class="step" x1="586" y1="676" x2="682" y2="671" stroke="#0ff">
        <title> 18:36:13: 43.8 m @ 8.5 kts &#x2191; 87° E = 0.67 nm</title>
        </line>
	    
    </g>
	
    <g class="segment">
        
        <line class="step" x1="682" y1="671" x2="729" y2="670" stroke="#0af">
        <title> 18:36:20: 21.3 m @ 5.9 kts &#x2191; 88° E = 0.68 nm</title>
        </line>
        
        
        <line class="step" x1="729" y1="670" x2="785" y2="648" stroke="#0ef">
        <title> 18:36:27: 27.1 m @ 7.5 kts &#x2191; 69° ENE = 0.70 nm</title>
        </line>
	    
        <line class="step" x1="785" y1="648" x2="802" y2="634" stroke="#0fb">
        <title> 18:36:29: 10.1 m @ 9.8 kts &#x2191; 50° NE = 0.70 nm</title>
        </line>
	    
        <line class="step" x1="802" y1="634" x2="807" y2="582" stroke="#0ef">
        <title> 18:36:35: 23.5 m @ 7.6 kts &#x2191; 5° N = 0.71 nm</title>
        </line>
	    
        <line class="step" x1="807" y1="582" x2="801" y2="554" stroke="#0af">
        <title> 18:36:40: 13.1 m @ 5.1 kts &#x2191; 348° NNW = 0.72 nm</title>
        </line>
	    
        <line class="step" x1="801" y1="554" x2="794" y2="506" stroke="#0af">
        <title> 18:36:48: 22.1 m @ 5.4 kts &#x2191; 352° N = 0.73 nm</title>
        </line>
	    
    </g>
	
    <g class="segment">
        
        <line class="step" x1="794" y1="506" x2="790" y2="450" stroke="#0af">
        <title> 18:36:57: 25.2 m @ 5.4 kts &#x2191; 356° N = 0.75 nm</title>
        </line>
        
        
        <line class="step" x1="790" y1="450" x2="786" y2="411" stroke="#08f">
        <title> 18:37:04: 17.9 m @ 5.0 kts &#x2191; 354° N = 0.76 nm</title>
        </line>
	    
        <line class="step" x1="786" y1="411" x2="781" y2="375" stroke="#08f">
        <title> 18:37:11: 16.4 m @ 4.5 kts &#x2191; 351° N = 0.76 nm</title>
        </line>
	    
        <line class="step" x1="781" y1="375" x2="772" y2="338" stroke="#0af">
        <title> 18:37:17: 17.2 m @ 5.6 kts &#x2191; 346° NNW = 0.77 nm</title>
        </line>
	    
        <line class="step" x1="772" y1="338" x2="766" y2="315" stroke="#08f">
        <title> 18:37:22: 11.1 m @ 4.3 kts &#x2191; 345° NNW = 0.78 nm</title>
        </line>
	    
        <line class="step" x1="766" y1="315" x2="760" y2="286" stroke="#06f">
        <title> 18:37:29: 13.4 m @ 3.7 kts &#x2191; 349° N = 0.79 nm</title>
        </line>
	    
    </g>
	
    <g class="segment">
        
        <line class="step" x1="760" y1="286" x2="755" y2="241" stroke="#0cf">
        <title> 18:37:35: 20.5 m @ 6.6 kts &#x2191; 354° N = 0.80 nm</title>
        </line>
        
        
        <line class="step" x1="755" y1="241" x2="743" y2="160" stroke="#0ef">
        <title> 18:37:44: 37.0 m @ 8.0 kts &#x2191; 351° N = 0.82 nm</title>
        </line>
	    
        <line class="step" x1="743" y1="160" x2="735" y2="149" stroke="#06f">
        <title> 18:37:47: 6.1 m @ 4.0 kts &#x2191; 327° NNW = 0.82 nm</title>
        </line>
	    
        <line class="step" x1="735" y1="149" x2="723" y2="153" stroke="#02f">
        <title> 18:37:54: 5.9 m @ 1.6 kts &#x2191; 254° WSW = 0.82 nm</title>
        </line>
	    
        <line class="step" x1="723" y1="153" x2="709" y2="163" stroke="#06f">
        <title> 18:37:59: 8.0 m @ 3.1 kts &#x2191; 234° SW = 0.83 nm</title>
        </line>
	    
        <line class="step" x1="709" y1="163" x2="677" y2="184" stroke="#08f">
        <title> 18:38:06: 17.2 m @ 4.8 kts &#x2191; 237° WSW = 0.84 nm</title>
        </line>
	    
        <line class="step" x1="677" y1="184" x2="644" y2="206" stroke="#0af">
        <title> 18:38:12: 18.1 m @ 5.9 kts &#x2191; 235° SW = 0.85 nm</title>
        </line>
	    
        <line class="step" x1="644" y1="206" x2="617" y2="245" stroke="#0ff">
        <title> 18:38:17: 21.3 m @ 8.3 kts &#x2191; 215° SW = 0.86 nm</title>
        </line>
	    
    </g>
	
    <g class="segment">
        
        <line class="step" x1="617" y1="245" x2="620" y2="278" stroke="#0fb">
        <title> 18:38:20: 15.1 m @ 9.8 kts &#x2191; 174° S = 0.87 nm</title>
        </line>
        
        
        <line class="step" x1="620" y1="278" x2="636" y2="357" stroke="#0f7">
        <title> 18:38:27: 36.8 m @ 10.2 kts &#x2191; 169° S = 0.89 nm</title>
        </line>
	    
        <line class="step" x1="636" y1="357" x2="637" y2="382" stroke="#0f7">
        <title> 18:38:29: 11.0 m @ 10.6 kts &#x2191; 176° S = 0.89 nm</title>
        </line>
	    
        <line class="step" x1="637" y1="382" x2="626" y2="463" stroke="#0f7">
        <title> 18:38:36: 37.5 m @ 10.4 kts &#x2191; 188° S = 0.91 nm</title>
        </line>
	    
        <line class="step" x1="626" y1="463" x2="612" y2="554" stroke="#0f7">
        <title> 18:38:44: 41.5 m @ 10.1 kts &#x2191; 189° S = 0.94 nm</title>
        </line>
	    
        <line class="step" x1="612" y1="554" x2="601" y2="629" stroke="#0fb">
        <title> 18:38:51: 34.5 m @ 9.6 kts &#x2191; 189° S = 0.95 nm</title>
        </line>
	    
        <line class="step" x1="601" y1="629" x2="581" y2="736" stroke="#0f7">
        <title> 18:39:00: 49.4 m @ 10.7 kts &#x2191; 190° S = 0.98 nm</title>
        </line>
	    
        <line class="step" x1="581" y1="736" x2="569" y2="821" stroke="#0f7">
        <title> 18:39:07: 38.9 m @ 10.8 kts &#x2191; 188° S = 1.00 nm</title>
        </line>
	    
        <line class="step" x1="569" y1="821" x2="573" y2="873" stroke="#0f3">
        <title> 18:39:11: 23.5 m @ 11.4 kts &#x2191; 176° S = 1.01 nm</title>
        </line>
	    
        <line class="step" x1="573" y1="873" x2="566" y2="976" stroke="#0f3">
        <title> 18:39:19: 46.7 m @ 11.3 kts &#x2191; 184° S = 1.04 nm</title>
        </line>
	    
        <line class="step" x1="566" y1="976" x2="548" y2="1065" stroke="#0f3">
        <title> 18:39:26: 41.0 m @ 11.4 kts &#x2191; 192° SSW = 1.06 nm</title>
        </line>
	    
        <line class="step" x1="548" y1="1065" x2="527" y2="1150" stroke="#0fb">
        <title> 18:39:34: 40.0 m @ 9.7 kts &#x2191; 194° SSW = 1.08 nm</title>
        </line>
	    
        <line class="step" x1="527" y1="1150" x2="517" y2="1193" stroke="#0fb">
        <title> 18:39:38: 20.1 m @ 9.8 kts &#x2191; 193° SSW = 1.09 nm</title>
        </line>
	    
        <line class="step" x1="517" y1="1193" x2="524" y2="1259" stroke="#0f3">
        <title> 18:39:43: 30.2 m @ 11.7 kts &#x2191; 174° S = 1.11 nm</title>
        </line>
	    
        <line class="step" x1="524" y1="1259" x2="541" y2="1389" stroke="#0f0">
        <title> 18:39:52: 59.1 m @ 12.8 kts &#x2191; 172° S = 1.14 nm</title>
        </line>
	    
        <line class="step" x1="541" y1="1389" x2="559" y2="1508" stroke="#4f0">
        <title> 18:40:00: 54.9 m @ 13.3 kts &#x2191; 172° S = 1.17 nm</title>
        </line>
	    
        <line class="step" x1="559" y1="1508" x2="563" y2="1523" stroke="#4f0">
        <title> 18:40:01: 6.9 m @ 13.3 kts &#x2191; 162° SSE = 1.18 nm</title>
        </line>
	    
        <line class="step" x1="563" y1="1523" x2="591" y2="1587" stroke="#0f0">
        <title> 18:40:06: 31.5 m @ 12.2 kts &#x2191; 157° SSE = 1.19 nm</title>
        </line>
	    
        <line class="step" x1="591" y1="1587" x2="621" y2="1671" stroke="#0f3">
        <title> 18:40:13: 40.7 m @ 11.3 kts &#x2191; 161° SSE = 1.22 nm</title>
        </line>
	    
    </g>
	
    <g class="segment">
        
        <line class="step" x1="621" y1="1671" x2="617" y2="1716" stroke="#0fb">
        <title> 18:40:17: 20.5 m @ 9.9 kts &#x2191; 184° S = 1.23 nm</title>
        </line>
        
        
        <line class="step" x1="617" y1="1716" x2="606" y2="1730" stroke="#0ff">
        <title> 18:40:19: 8.3 m @ 8.0 kts &#x2191; 221° SW = 1.23 nm</title>
        </line>
	    
    </g>
	
    <g class="segment">
        
        <line class="step" x1="606" y1="1730" x2="545" y2="1799" stroke="#0ff">
        <title> 18:40:29: 41.6 m @ 8.1 kts &#x2191; 221° SW = 1.25 nm</title>
        </line>
        
        
        <line class="step" x1="545" y1="1799" x2="502" y2="1841" stroke="#0ef">
        <title> 18:40:36: 27.4 m @ 7.6 kts &#x2191; 226° SW = 1.27 nm</title>
        </line>
	    
        <line class="step" x1="502" y1="1841" x2="475" y2="1884" stroke="#0ff">
        <title> 18:40:41: 22.8 m @ 8.9 kts &#x2191; 211° SSW = 1.28 nm</title>
        </line>
	    
        <line class="step" x1="475" y1="1884" x2="459" y2="1964" stroke="#0f7">
        <title> 18:40:48: 37.1 m @ 10.3 kts &#x2191; 191° S = 1.30 nm</title>
        </line>
	    
        <line class="step" x1="459" y1="1964" x2="444" y2="2043" stroke="#0f7">
        <title> 18:40:55: 36.4 m @ 10.1 kts &#x2191; 191° S = 1.32 nm</title>
        </line>
	    
        <line class="step" x1="444" y1="2043" x2="420" y2="2126" stroke="#0f7">
        <title> 18:41:02: 39.2 m @ 10.9 kts &#x2191; 196° SSW = 1.34 nm</title>
        </line>
	    
        <line class="step" x1="420" y1="2126" x2="389" y2="2224" stroke="#0f3">
        <title> 18:41:10: 46.5 m @ 11.3 kts &#x2191; 197° SSW = 1.37 nm</title>
        </line>
	    
        <line class="step" x1="389" y1="2224" x2="367" y2="2302" stroke="#0f3">
        <title> 18:41:16: 36.5 m @ 11.8 kts &#x2191; 196° SSW = 1.39 nm</title>
        </line>
	    
        <line class="step" x1="367" y1="2302" x2="340" y2="2391" stroke="#0f3">
        <title> 18:41:23: 42.4 m @ 11.8 kts &#x2191; 197° SSW = 1.41 nm</title>
        </line>
	    
        <line class="step" x1="340" y1="2391" x2="318" y2="2486" stroke="#0f0">
        <title> 18:41:30: 44.0 m @ 12.2 kts &#x2191; 193° SSW = 1.43 nm</title>
        </line>
	    
        <line class="step" x1="318" y1="2486" x2="303" y2="2556" stroke="#0f7">
        <title> 18:41:36: 32.5 m @ 10.5 kts &#x2191; 192° SSW = 1.45 nm</title>
        </line>
	    
        <line class="step" x1="303" y1="2556" x2="280" y2="2640" stroke="#0f3">
        <title> 18:41:43: 39.6 m @ 11.0 kts &#x2191; 195° SSW = 1.47 nm</title>
        </line>
	    
        <line class="step" x1="280" y1="2640" x2="259" y2="2740" stroke="#0f0">
        <title> 18:41:50: 46.1 m @ 12.8 kts &#x2191; 192° SSW = 1.50 nm</title>
        </line>
	    
        <line class="step" x1="259" y1="2740" x2="249" y2="2839" stroke="#0f0">
        <title> 18:41:57: 45.3 m @ 12.6 kts &#x2191; 186° S = 1.52 nm</title>
        </line>
	    
        <line class="step" x1="249" y1="2839" x2="244" y2="2937" stroke="#0f7">
        <title> 18:42:05: 44.6 m @ 10.8 kts &#x2191; 183° S = 1.54 nm</title>
        </line>
	    
    </g>
	
    <g class="segment">
        
        <line class="step" x1="244" y1="2937" x2="226" y2="3020" stroke="#0fb">
        <title> 18:42:13: 38.2 m @ 9.3 kts &#x2191; 193° SSW = 1.57 nm</title>
        </line>
        
        
        <line class="step" x1="226" y1="3020" x2="217" y2="3047" stroke="#0ff">
        <title> 18:42:16: 12.9 m @ 8.3 kts &#x2191; 198° SSW = 1.57 nm</title>
        </line>
	    
        <line class="step" x1="217" y1="3047" x2="201" y2="3070" stroke="#0cf">
        <title> 18:42:20: 12.9 m @ 6.3 kts &#x2191; 213° SSW = 1.58 nm</title>
        </line>
	    
        <line class="step" x1="201" y1="3070" x2="160" y2="3104" stroke="#0af">
        <title> 18:42:29: 24.0 m @ 5.2 kts &#x2191; 231° SW = 1.59 nm</title>
        </line>
	    
        <line class="step" x1="160" y1="3104" x2="130" y2="3115" stroke="#0af">
        <title> 18:42:34: 14.6 m @ 5.7 kts &#x2191; 250° WSW = 1.60 nm</title>
        </line>
	    
    </g>
	
    <g class="segment">
        
        <line class="step" x1="130" y1="3115" x2="111" y2="3116" stroke="#06f">
        <title> 18:42:39: 8.7 m @ 3.4 kts &#x2191; 267° W = 1.60 nm</title>
        </line>
        
        
        <line class="step" x1="111" y1="3116" x2="107" y2="3117" stroke="#02f">
        <title> 18:42:41: 1.9 m @ 1.8 kts &#x2191; 254° WSW = 1.61 nm</title>
        </line>
	    
        <line class="step" x1="107" y1="3117" x2="104" y2="3116" stroke="#00f">
        <title> 18:42:45: 1.5 m @ 0.7 kts &#x2191; 298° WNW = 1.61 nm</title>
        </line>
	    
    </g>
	
</svg>
